<svg width="88" height="104" viewBox="0 0 88 104" fill="none" xmlns="http://www.w3.org/2000/svg">
<rect width="8" height="8" transform="translate(8 40)" fill="black"/>
<rect width="8" height="8" transform="translate(48 96)" fill="black"/>
<rect width="8" height="8" transform="translate(8 56)" fill="black"/>
<rect width="8" height="8" transform="translate(16 64)" fill="black"/>
<rect width="8" height="8" transform="translate(24 72)" fill="black"/>
<rect width="8" height="8" transform="translate(32 80)" fill="black"/>
<rect width="8" height="8" transform="translate(40 88)" fill="black"/>
<rect width="8" height="8" transform="translate(48 88)" fill="black"/>
<rect width="8" height="8" transform="translate(48 80)" fill="black"/>
<rect width="8" height="8" transform="translate(48 72)" fill="black"/>
<rect width="8" height="8" transform="translate(48 64)" fill="black"/>
<rect width="8" height="8" transform="translate(56 64)" fill="black"/>
<rect width="8" height="8" transform="translate(64 64)" fill="black"/>
<rect width="8" height="8" transform="translate(72 64)" fill="black"/>
<rect width="8" height="8" transform="translate(48)" fill="black"/>
<rect width="8" height="8" transform="translate(48 56)" fill="#D289FF"/>
<rect width="8" height="8" transform="translate(56 56)" fill="#D289FF"/>
<rect width="8" height="8" transform="translate(64 56)" fill="#D289FF"/>
<rect width="8" height="8" transform="translate(72 56)" fill="#D289FF"/>
<rect width="8" height="8" transform="translate(40 56)" fill="#D289FF"/>
<rect width="8" height="8" transform="translate(32 56)" fill="#D289FF"/>
<rect width="8" height="8" transform="translate(24 56)" fill="#D289FF"/>
<rect width="8" height="8" transform="translate(16 56)" fill="#D289FF"/>
<rect width="8" height="8" transform="translate(48 16)" fill="black"/>
<rect width="8" height="8" transform="translate(48 24)" fill="black"/>
<rect width="8" height="8" transform="translate(48 32)" fill="black"/>
<rect width="8" height="8" transform="translate(56 32)" fill="black"/>
<rect width="8" height="8" transform="translate(64 32)" fill="black"/>
<rect width="8" height="8" transform="translate(72 32)" fill="black"/>
<rect width="8" height="8" transform="translate(80 32)" fill="black"/>
<rect width="8" height="8" transform="translate(80 40)" fill="black"/>
<rect width="8" height="8" transform="translate(80 48)" fill="black"/>
<rect width="8" height="8" transform="translate(80 56)" fill="black"/>
<rect width="8" height="8" transform="translate(80 64)" fill="black"/>
<rect width="8" height="8" transform="translate(48 8)" fill="black"/>
<rect width="8" height="8" transform="translate(32 16)" fill="black"/>
<rect width="8" height="8" transform="translate(40 8)" fill="black"/>
<rect width="8" height="8" transform="translate(24 24)" fill="black"/>
<rect width="8" height="8" transform="translate(0 48)" fill="black"/>
<rect width="8" height="8" transform="translate(16 32)" fill="black"/>
<rect width="8" height="8" transform="translate(48 48)" fill="#D289FF"/>
<rect width="8" height="8" transform="translate(56 48)" fill="#D289FF"/>
<rect width="8" height="8" transform="translate(64 48)" fill="#D289FF"/>
<rect width="8" height="8" transform="translate(72 48)" fill="#D289FF"/>
<rect width="8" height="8" transform="translate(40 48)" fill="#D289FF"/>
<rect width="8" height="8" transform="translate(32 48)" fill="#D289FF"/>
<rect width="8" height="8" transform="translate(24 48)" fill="#D289FF"/>
<rect width="8" height="8" transform="translate(24 40)" fill="#D289FF"/>
<rect width="8" height="8" transform="translate(24 64)" fill="#D289FF"/>
<rect width="8" height="8" transform="translate(32 64)" fill="#D289FF"/>
<rect width="8" height="8" transform="translate(40 64)" fill="#D289FF"/>
<rect width="8" height="8" transform="translate(40 72)" fill="#D289FF"/>
<rect width="8" height="8" transform="translate(40 80)" fill="#D289FF"/>
<rect width="8" height="8" transform="translate(32 40)" fill="#D289FF"/>
<rect width="8" height="8" transform="translate(40 40)" fill="#D289FF"/>
<rect width="8" height="8" transform="translate(40 32)" fill="#D289FF"/>
<rect width="8" height="8" transform="translate(40 24)" fill="#D289FF"/>
<rect width="8" height="8" transform="translate(32 32)" fill="#D289FF"/>
<rect width="8" height="8" transform="translate(8 48)" fill="#EFD5FF"/>
<rect width="8" height="8" transform="translate(16 40)" fill="#EFD5FF"/>
<rect width="8" height="8" transform="translate(24 32)" fill="#EFD5FF"/>
<rect width="8" height="8" transform="translate(32 24)" fill="#EFD5FF"/>
<rect width="8" height="8" transform="translate(40 16)" fill="#EFD5FF"/>
<rect width="8" height="8" transform="translate(48 40)" fill="#EFD5FF"/>
<rect width="8" height="8" transform="translate(56 40)" fill="#EFD5FF"/>
<rect width="8" height="8" transform="translate(64 40)" fill="#EFD5FF"/>
<rect width="8" height="8" transform="translate(72 40)" fill="#EFD5FF"/>
<rect width="8" height="8" transform="translate(32 72)" fill="#D289FF"/>
<rect width="8" height="8" transform="translate(16 48)" fill="#D289FF"/>
</svg>
