<svg width="198" height="50" viewBox="0 0 198 50" fill="none" xmlns="http://www.w3.org/2000/svg">
<rect width="16.5" height="16.5" transform="translate(0 33)" fill="#D6A285" fill-opacity="0.4"/>
<rect width="16.5" height="16.5" transform="translate(49.5 33)" fill="#D6A285" fill-opacity="0.4"/>
<rect width="16.5" height="16.5" transform="translate(66 33)" fill="#D6A285" fill-opacity="0.4"/>
<rect width="16.5" height="16.5" transform="translate(82.5 33)" fill="#D6A285" fill-opacity="0.4"/>
<rect width="16.5" height="16.5" transform="translate(33 33)" fill="#D6A285" fill-opacity="0.4"/>
<rect width="16.5" height="16.5" transform="translate(16.5 33)" fill="#D6A285" fill-opacity="0.4"/>
<rect width="16.5" height="16.5" transform="translate(99)" fill="#D6A285" fill-opacity="0.4"/>
<rect width="16.5" height="16.5" transform="translate(148.5)" fill="#D6A285" fill-opacity="0.4"/>
<rect width="16.5" height="16.5" transform="translate(165)" fill="#D6A285" fill-opacity="0.4"/>
<rect width="16.5" height="16.5" transform="translate(181.5)" fill="#D6A285" fill-opacity="0.4"/>
<rect width="16.5" height="16.5" transform="translate(132)" fill="#D6A285" fill-opacity="0.4"/>
<rect width="16.5" height="16.5" transform="translate(115.5)" fill="#D6A285" fill-opacity="0.4"/>
<rect width="16.5" height="16.5" transform="translate(99 16.5)" fill="#D6A285" fill-opacity="0.4"/>
<rect width="16.5" height="16.5" transform="translate(148.5 16.5)" fill="#D6A285" fill-opacity="0.4"/>
<rect width="16.5" height="16.5" transform="translate(165 16.5)" fill="#D6A285" fill-opacity="0.4"/>
<rect width="16.5" height="16.5" transform="translate(181.5 16.5)" fill="#D6A285" fill-opacity="0.4"/>
<rect width="16.5" height="16.5" transform="translate(132 16.5)" fill="#D6A285" fill-opacity="0.4"/>
<rect width="16.5" height="16.5" transform="translate(115.5 16.5)" fill="#D6A285" fill-opacity="0.4"/>
<rect width="16.5" height="16.5" transform="translate(99 33)" fill="#D6A285" fill-opacity="0.4"/>
<rect width="16.5" height="16.5" transform="translate(148.5 33)" fill="#D6A285" fill-opacity="0.4"/>
<rect width="16.5" height="16.5" transform="translate(165 33)" fill="#D6A285" fill-opacity="0.4"/>
<rect width="16.5" height="16.5" transform="translate(181.5 33)" fill="#D6A285" fill-opacity="0.4"/>
<rect width="16.5" height="16.5" transform="translate(132 33)" fill="#D6A285" fill-opacity="0.4"/>
<rect width="16.5" height="16.5" transform="translate(115.5 33)" fill="#D6A285" fill-opacity="0.4"/>
<rect width="16.5" height="16.5" fill="#D6A285" fill-opacity="0.4"/>
<rect width="16.5" height="16.5" transform="translate(49.5)" fill="#D6A285" fill-opacity="0.4"/>
<rect width="16.5" height="16.5" transform="translate(66)" fill="#D6A285" fill-opacity="0.4"/>
<rect width="16.5" height="16.5" transform="translate(82.5)" fill="#D6A285" fill-opacity="0.4"/>
<rect width="16.5" height="16.5" transform="translate(33)" fill="#D6A285" fill-opacity="0.4"/>
<rect width="16.5" height="16.5" transform="translate(16.5)" fill="#D6A285" fill-opacity="0.4"/>
<rect width="16.5" height="16.5" transform="translate(0 16.5)" fill="#D6A285" fill-opacity="0.4"/>
<rect width="16.5" height="16.5" transform="translate(49.5 16.5)" fill="#D6A285" fill-opacity="0.4"/>
<rect width="16.5" height="16.5" transform="translate(66 16.5)" fill="#D6A285" fill-opacity="0.4"/>
<rect width="16.5" height="16.5" transform="translate(82.5 16.5)" fill="#D6A285" fill-opacity="0.4"/>
<rect width="16.5" height="16.5" transform="translate(33 16.5)" fill="#D6A285" fill-opacity="0.4"/>
<rect width="16.5" height="16.5" transform="translate(16.5 16.5)" fill="#D6A285" fill-opacity="0.4"/>
<rect width="16.5" height="16.5" transform="translate(157 17)" fill="#D289FF"/>
<rect width="16.5" height="16.5" transform="translate(174 1)" fill="#D289FF"/>
<rect width="16.5" height="16.5" transform="translate(174 33)" fill="#D289FF"/>
</svg>
