<svg width="1377" height="148" viewBox="0 0 1377 148" fill="none" xmlns="http://www.w3.org/2000/svg">
<rect width="16.5" height="16.5" transform="translate(16.5 2)" fill="#EFD5FF"/>
<rect width="16.5" height="16.5" transform="translate(0 2)" fill="#EFD5FF"/>
<rect width="16.5" height="16.5" transform="translate(33 2)" fill="#EFD5FF"/>
<rect width="16.5" height="16.5" transform="translate(49.5 2)" fill="#EFD5FF"/>
<rect width="16.5" height="16.5" transform="translate(66 2)" fill="#EFD5FF"/>
<rect width="16.5" height="16.5" transform="translate(0 18.5)" fill="#EFD5FF"/>
<rect width="16.5" height="16.5" transform="translate(16.5 18.5)" fill="#EFD5FF"/>
<rect width="16.5" height="16.5" transform="translate(33 18.5)" fill="#EFD5FF"/>
<rect width="16.5" height="16.5" transform="translate(49.5 18.5)" fill="#EFD5FF"/>
<rect width="16.5" height="16.5" transform="translate(49.5 35)" fill="#D289FF"/>
<rect width="16.5" height="16.5" transform="translate(82.5 18.5)" fill="#EFD5FF"/>
<rect width="16.5" height="16.5" transform="translate(66 18.5)" fill="#EFD5FF"/>
<rect width="16.5" height="16.5" transform="translate(99 18.5)" fill="#EFD5FF"/>
<rect width="16.5" height="16.5" transform="translate(82.5 2)" fill="#EFD5FF"/>
<rect width="16.5" height="16.5" transform="translate(0 35)" fill="#EFD5FF"/>
<rect width="16.5" height="16.5" transform="translate(16.5 35)" fill="#EFD5FF"/>
<rect width="16.5" height="16.5" transform="translate(33 35)" fill="#EFD5FF"/>
<rect width="16.5" height="16.5" transform="translate(66 35)" fill="#EFD5FF"/>
<rect width="16.5" height="16.5" transform="translate(82.5 35)" fill="#EFD5FF"/>
<rect width="16.5" height="16.5" transform="translate(99 35)" fill="#EFD5FF"/>
<rect width="16.5" height="16.5" transform="translate(0 51.5)" fill="#EFD5FF"/>
<rect width="16.5" height="16.5" transform="translate(16.5 51.5)" fill="#EFD5FF"/>
<rect width="16.5" height="16.5" transform="translate(33 51.5)" fill="#EFD5FF"/>
<rect width="16.5" height="16.5" transform="translate(66 51.5)" fill="#EFD5FF"/>
<rect width="16.5" height="16.5" transform="translate(82.5 51.5)" fill="#EFD5FF"/>
<rect width="16.5" height="16.5" transform="translate(99 51.5)" fill="#EFD5FF"/>
<rect width="16.5" height="16.5" transform="translate(0 68)" fill="#EFD5FF"/>
<rect width="16.5" height="16.5" transform="translate(16.5 68)" fill="#EFD5FF"/>
<rect width="16.5" height="16.5" transform="translate(33 68)" fill="#EFD5FF"/>
<rect width="16.5" height="16.5" transform="translate(66 68)" fill="#EFD5FF"/>
<rect width="16.5" height="16.5" transform="translate(82.5 68)" fill="#EFD5FF"/>
<rect width="16.5" height="16.5" transform="translate(99 68)" fill="#EFD5FF"/>
<rect width="16.5" height="16.5" transform="translate(0 84.5)" fill="#EFD5FF"/>
<rect width="16.5" height="16.5" transform="translate(0 101)" fill="#EFD5FF"/>
<rect width="16.5" height="16.5" transform="translate(16.5 84.5)" fill="#EFD5FF"/>
<rect width="16.5" height="16.5" transform="translate(33 84.5)" fill="#EFD5FF"/>
<rect width="16.5" height="16.5" transform="translate(49.5 84.5)" fill="#EFD5FF"/>
<rect width="16.5" height="16.5" transform="translate(49.5 68)" fill="#EFD5FF"/>
<rect width="16.5" height="16.5" transform="translate(66 84.5)" fill="#EFD5FF"/>
<rect width="16.5" height="16.5" transform="translate(82.5 84.5)" fill="#EFD5FF"/>
<rect width="16.5" height="16.5" transform="translate(99 84.5)" fill="#D289FF"/>
<rect width="16.5" height="16.5" transform="translate(0 117.5)" fill="#D289FF"/>
<rect width="16.5" height="16.5" transform="translate(16.5 101)" fill="#EFD5FF"/>
<rect width="16.5" height="16.5" transform="translate(33 101)" fill="#EFD5FF"/>
<rect width="16.5" height="16.5" transform="translate(49.5 101)" fill="#D289FF"/>
<rect width="16.5" height="16.5" transform="translate(66 101)" fill="#D289FF"/>
<rect width="16.5" height="16.5" transform="translate(82.5 101)" fill="#D289FF"/>
<rect width="16.5" height="16.5" transform="translate(16.5 117.5)" fill="#D289FF"/>
<rect width="16.5" height="16.5" transform="translate(33 117.5)" fill="#D289FF"/>
<rect width="16.625" height="16.625" transform="translate(160.875 7)" fill="#FFD5E1"/>
<rect width="16.625" height="16.625" transform="translate(144.25 7)" fill="#FFD5E1"/>
<rect width="16.625" height="16.625" transform="translate(177.5 7)" fill="#FFD5E1"/>
<rect width="16.625" height="16.625" transform="translate(144.25 23.625)" fill="#FFD5E1"/>
<rect width="16.625" height="16.625" transform="translate(160.875 23.625)" fill="#FFD5E1"/>
<rect width="16.625" height="16.625" transform="translate(177.5 23.625)" fill="#FFD5E1"/>
<rect width="16.625" height="16.625" transform="translate(144.25 40.25)" fill="#FFD5E1"/>
<rect width="16.625" height="16.625" transform="translate(160.875 40.25)" fill="#FFD5E1"/>
<rect width="16.625" height="16.625" transform="translate(177.5 40.25)" fill="#FFD5E1"/>
<rect width="16.625" height="16.625" transform="translate(144.25 56.875)" fill="#FFD5E1"/>
<rect width="16.625" height="16.625" transform="translate(160.875 56.875)" fill="#FFD5E1"/>
<rect width="16.625" height="16.625" transform="translate(177.5 56.875)" fill="#FFD5E1"/>
<rect width="16.625" height="16.625" transform="translate(144.25 73.5)" fill="#FFD5E1"/>
<rect width="16.625" height="16.625" transform="translate(160.875 73.5)" fill="#FFD5E1"/>
<rect width="16.625" height="16.625" transform="translate(177.5 73.5)" fill="#FFD5E1"/>
<rect width="16.625" height="16.625" transform="translate(144.25 90.125)" fill="#FFD5E1"/>
<rect width="16.625" height="16.625" transform="translate(160.875 90.125)" fill="#FFD5E1"/>
<rect width="16.625" height="16.625" transform="translate(177.5 90.125)" fill="#FFD5E1"/>
<rect width="16.625" height="16.625" transform="translate(144.25 106.75)" fill="#FFD5E1"/>
<rect width="16.625" height="16.625" transform="translate(160.875 106.75)" fill="#FFD5E1"/>
<rect width="16.625" height="16.625" transform="translate(177.5 106.75)" fill="#FFD5E1"/>
<rect width="16.625" height="16.625" transform="translate(160.875 123.375)" fill="#FF89AC"/>
<rect width="16.625" height="16.625" transform="translate(144.25 123.375)" fill="#FF89AC"/>
<rect width="16.625" height="16.625" transform="translate(177.5 123.375)" fill="#FF89AC"/>
<g clip-path="url(#clip0_102_2251)">
<rect width="16.625" height="16.625" transform="translate(316.125 123.375)" fill="#89B8FF"/>
<rect width="16.625" height="16.625" transform="translate(249.625 123.375)" fill="#89B8FF"/>
<rect width="16.625" height="16.625" transform="translate(332.75 123.375)" fill="#89B8FF"/>
<rect width="16.625" height="16.625" transform="translate(266.25 123.375)" fill="#89B8FF"/>
<rect width="16.625" height="16.625" transform="translate(332.75 106.75)" fill="#D5EDFF"/>
<rect width="16.625" height="16.625" transform="translate(266.25 106.75)" fill="#D5EDFF"/>
<rect width="16.625" height="16.625" transform="translate(316.125 106.75)" fill="#D5EDFF"/>
<rect width="16.625" height="16.625" transform="translate(249.625 106.75)" fill="#D5EDFF"/>
<rect width="16.625" height="16.625" transform="translate(299.5 106.75)" fill="#D5EDFF"/>
<rect width="16.625" height="16.625" transform="translate(299.5 123.375)" fill="#89B8FF"/>
<rect width="16.625" height="16.625" transform="translate(233 123.375)" fill="#89B8FF"/>
<rect width="16.625" height="16.625" transform="translate(332.75 90.125)" fill="#D5EDFF"/>
<rect width="16.625" height="16.625" transform="translate(282.875 90.125)" fill="#89B8FF"/>
<rect width="16.625" height="16.625" transform="translate(316.125 90.125)" fill="#D5EDFF"/>
<rect width="16.625" height="16.625" transform="translate(266.25 90.125)" fill="#D5EDFF"/>
<rect width="16.625" height="16.625" transform="translate(299.5 90.125)" fill="#D5EDFF"/>
<rect width="16.625" height="16.625" transform="translate(249.625 90.125)" fill="#D5EDFF"/>
<rect width="16.625" height="16.625" transform="translate(233 106.75)" fill="#D5EDFF"/>
<rect width="16.625" height="16.625" transform="translate(282.875 73.5)" fill="#D5EDFF"/>
<rect width="16.625" height="16.625" transform="translate(316.125 73.5)" fill="#D5EDFF"/>
<rect width="16.625" height="16.625" transform="translate(266.25 73.5)" fill="#D5EDFF"/>
<rect width="16.625" height="16.625" transform="translate(299.5 73.5)" fill="#D5EDFF"/>
<rect width="16.625" height="16.625" transform="translate(249.625 73.5)" fill="#D5EDFF"/>
<rect width="16.625" height="16.625" transform="translate(233 90.125)" fill="#D5EDFF"/>
<rect width="16.625" height="16.625" transform="translate(282.875 56.875)" fill="#D5EDFF"/>
<rect width="16.625" height="16.625" transform="translate(316.125 56.875)" fill="#89B8FF"/>
<rect width="16.625" height="16.625" transform="translate(266.25 56.875)" fill="#D5EDFF"/>
<rect width="16.625" height="16.625" transform="translate(299.5 56.875)" fill="#D5EDFF"/>
<rect width="16.625" height="16.625" transform="translate(299.5 40.25)" fill="#D5EDFF"/>
<rect width="16.625" height="16.625" transform="translate(266.25 40.25)" fill="#D5EDFF"/>
<rect width="16.625" height="16.625" transform="translate(249.625 56.875)" fill="#89B8FF"/>
<rect width="16.625" height="16.625" transform="translate(332.75 40.25)" fill="#89B8FF"/>
<rect width="16.625" height="16.625" transform="translate(249.625 40.25)" fill="#D5EDFF"/>
<rect width="16.625" height="16.625" transform="translate(316.125 40.25)" fill="#D5EDFF"/>
<rect width="16.625" height="16.625" transform="translate(233 40.25)" fill="#89B8FF"/>
<rect width="16.625" height="16.625" transform="translate(282.875 40.25)" fill="#D5EDFF"/>
<rect width="16.625" height="16.625" transform="translate(266.25 23.625)" fill="#D5EDFF"/>
<rect width="16.625" height="16.625" transform="translate(332.75 23.625)" fill="#D5EDFF"/>
<rect width="16.625" height="16.625" transform="translate(249.625 23.625)" fill="#D5EDFF"/>
<rect width="16.625" height="16.625" transform="translate(332.75 7)" fill="#D5EDFF"/>
<rect width="16.625" height="16.625" transform="translate(249.625 7)" fill="#D5EDFF"/>
<rect width="16.625" height="16.625" transform="translate(316.125 23.625)" fill="#D5EDFF"/>
<rect width="16.625" height="16.625" transform="translate(299.5 23.625)" fill="#D5EDFF"/>
<rect width="16.625" height="16.625" transform="translate(233 23.625)" fill="#D5EDFF"/>
<rect width="16.625" height="16.625" transform="translate(316.125 7)" fill="#D5EDFF"/>
<rect width="16.625" height="16.625" transform="translate(299.5 7)" fill="#D5EDFF"/>
<rect width="16.625" height="16.625" transform="translate(233 7)" fill="#D5EDFF"/>
<rect width="16.625" height="16.625" transform="translate(266.25 7)" fill="#D5EDFF"/>
</g>
<rect width="16.625" height="16.625" transform="translate(401.625 7)" fill="#D5FFDE"/>
<rect width="16.625" height="16.625" transform="translate(385 7)" fill="#D5FFDE"/>
<rect width="16.625" height="16.625" transform="translate(418.25 7)" fill="#D5FFDE"/>
<rect width="16.625" height="16.625" transform="translate(434.875 7)" fill="#D5FFDE"/>
<rect width="16.625" height="16.625" transform="translate(451.5 7)" fill="#D5FFDE"/>
<rect width="16.625" height="16.625" transform="translate(468.125 7)" fill="#D5FFDE"/>
<rect width="16.625" height="16.625" transform="translate(484.75 7)" fill="#D5FFDE"/>
<rect width="16.625" height="16.625" transform="translate(385 23.625)" fill="#D5FFDE"/>
<rect width="16.625" height="16.625" transform="translate(401.625 23.625)" fill="#D5FFDE"/>
<rect width="16.625" height="16.625" transform="translate(418.25 23.625)" fill="#D5FFDE"/>
<rect width="16.625" height="16.625" transform="translate(434.875 23.625)" fill="#D5FFDE"/>
<rect width="16.625" height="16.625" transform="translate(451.5 23.625)" fill="#D5FFDE"/>
<rect width="16.625" height="16.625" transform="translate(468.125 23.625)" fill="#D5FFDE"/>
<rect width="16.625" height="16.625" transform="translate(484.75 23.625)" fill="#D5FFDE"/>
<rect width="16.625" height="16.625" transform="translate(385 40.25)" fill="#D5FFDE"/>
<rect width="16.625" height="16.625" transform="translate(401.625 40.25)" fill="#D5FFDE"/>
<rect width="16.625" height="16.625" transform="translate(418.25 40.25)" fill="#D5FFDE"/>
<rect width="16.625" height="16.625" transform="translate(434.875 40.25)" fill="#89FFAA"/>
<rect width="16.625" height="16.625" transform="translate(451.5 40.25)" fill="#89FFAA"/>
<rect width="16.625" height="16.625" transform="translate(468.125 40.25)" fill="#89FFAA"/>
<rect width="16.625" height="16.625" transform="translate(484.75 40.25)" fill="#89FFAA"/>
<rect width="16.625" height="16.625" transform="translate(385 56.875)" fill="#D5FFDE"/>
<rect width="16.625" height="16.625" transform="translate(401.625 56.875)" fill="#D5FFDE"/>
<rect width="16.625" height="16.625" transform="translate(418.25 56.875)" fill="#D5FFDE"/>
<rect width="16.625" height="16.625" transform="translate(451.5 56.875)" fill="#D5FFDE"/>
<rect width="16.625" height="16.625" transform="translate(434.875 56.875)" fill="#D5FFDE"/>
<rect width="16.625" height="16.625" transform="translate(468.125 56.875)" fill="#D5FFDE"/>
<rect width="16.625" height="16.625" transform="translate(484.75 56.875)" fill="#D5FFDE"/>
<rect width="16.625" height="16.625" transform="translate(385 73.5)" fill="#D5FFDE"/>
<rect width="16.625" height="16.625" transform="translate(401.625 73.5)" fill="#D5FFDE"/>
<rect width="16.625" height="16.625" transform="translate(418.25 73.5)" fill="#D5FFDE"/>
<rect width="16.625" height="16.625" transform="translate(451.5 73.5)" fill="#89FFAA"/>
<rect width="16.625" height="16.625" transform="translate(434.875 73.5)" fill="#89FFAA"/>
<rect width="16.625" height="16.625" transform="translate(468.125 73.5)" fill="#89FFAA"/>
<rect width="16.625" height="16.625" transform="translate(484.75 73.5)" fill="#89FFAA"/>
<rect width="16.625" height="16.625" transform="translate(385 90.125)" fill="#D5FFDE"/>
<rect width="16.625" height="16.625" transform="translate(401.625 90.125)" fill="#D5FFDE"/>
<rect width="16.625" height="16.625" transform="translate(418.25 90.125)" fill="#D5FFDE"/>
<rect width="16.625" height="16.625" transform="translate(434.875 90.125)" fill="#D5FFDE"/>
<rect width="16.625" height="16.625" transform="translate(451.5 90.125)" fill="#D5FFDE"/>
<rect width="16.625" height="16.625" transform="translate(468.125 90.125)" fill="#D5FFDE"/>
<rect width="16.625" height="16.625" transform="translate(484.75 90.125)" fill="#D5FFDE"/>
<rect width="16.625" height="16.625" transform="translate(385 106.75)" fill="#D5FFDE"/>
<rect width="16.625" height="16.625" transform="translate(401.625 106.75)" fill="#D5FFDE"/>
<rect width="16.625" height="16.625" transform="translate(418.25 106.75)" fill="#D5FFDE"/>
<rect width="16.625" height="16.625" transform="translate(434.875 106.75)" fill="#D5FFDE"/>
<rect width="16.625" height="16.625" transform="translate(451.5 106.75)" fill="#D5FFDE"/>
<rect width="16.625" height="16.625" transform="translate(468.125 106.75)" fill="#D5FFDE"/>
<rect width="16.625" height="16.625" transform="translate(484.75 106.75)" fill="#D5FFDE"/>
<rect width="16.625" height="16.625" transform="translate(484.75 123.375)" fill="#89FFAA"/>
<rect width="16.625" height="16.625" transform="translate(401.625 123.375)" fill="#89FFAA"/>
<rect width="16.625" height="16.625" transform="translate(385 123.375)" fill="#89FFAA"/>
<rect width="16.625" height="16.625" transform="translate(418.25 123.375)" fill="#89FFAA"/>
<rect width="16.625" height="16.625" transform="translate(434.875 123.375)" fill="#89FFAA"/>
<rect width="16.625" height="16.625" transform="translate(451.5 123.375)" fill="#89FFAA"/>
<rect width="16.625" height="16.625" transform="translate(468.125 123.375)" fill="#89FFAA"/>
<g clip-path="url(#clip1_102_2251)">
<rect width="16.5" height="16.5" transform="translate(553.5 2)" fill="#EFD4FF"/>
<rect width="16.5" height="16.5" transform="translate(537 2)" fill="#EFD4FF"/>
<rect width="16.5" height="16.5" transform="translate(570 2)" fill="#EFD4FF"/>
<rect width="16.5" height="16.5" transform="translate(537 18.5)" fill="#EFD4FF"/>
<rect width="16.5" height="16.5" transform="translate(553.5 18.5)" fill="#EFD4FF"/>
<rect width="16.5" height="16.5" transform="translate(570 18.5)" fill="#EFD4FF"/>
<rect width="16.5" height="16.5" transform="translate(537 35)" fill="#EFD4FF"/>
<rect width="16.5" height="16.5" transform="translate(553.5 35)" fill="#EFD4FF"/>
<rect width="16.5" height="16.5" transform="translate(570 35)" fill="#EFD4FF"/>
<rect width="16.5" height="16.5" transform="translate(537 51.5)" fill="#EFD4FF"/>
<rect width="16.5" height="16.5" transform="translate(553.5 51.5)" fill="#EFD4FF"/>
<rect width="16.5" height="16.5" transform="translate(570 51.5)" fill="#EFD4FF"/>
<rect width="16.5" height="16.5" transform="translate(537 68)" fill="#EFD4FF"/>
<rect width="16.5" height="16.5" transform="translate(553.5 68)" fill="#EFD4FF"/>
<rect width="16.5" height="16.5" transform="translate(570 68)" fill="#EFD4FF"/>
<rect width="16.5" height="16.5" transform="translate(537 84.5)" fill="#EFD4FF"/>
<rect width="16.5" height="16.5" transform="translate(603 84.5)" fill="#EFD4FF"/>
<rect width="16.5" height="16.5" transform="translate(586.5 84.5)" fill="#EFD4FF"/>
<rect width="16.5" height="16.5" transform="translate(553.5 84.5)" fill="#EFD4FF"/>
<rect width="16.5" height="16.5" transform="translate(619.5 84.5)" fill="#EFD4FF"/>
<rect width="16.5" height="16.5" transform="translate(570 84.5)" fill="#EFD4FF"/>
<rect width="16.5" height="16.5" transform="translate(636 84.5)" fill="#EFD4FF"/>
<rect width="16.5" height="16.5" transform="translate(570 101)" fill="#EFD4FF"/>
<rect width="16.5" height="16.5" transform="translate(636 101)" fill="#EFD4FF"/>
<rect width="16.5" height="16.5" transform="translate(537 101)" fill="#EFD4FF"/>
<rect width="16.5" height="16.5" transform="translate(603 101)" fill="#EFD4FF"/>
<rect width="16.5" height="16.5" transform="translate(586.5 101)" fill="#EFD4FF"/>
<rect width="16.5" height="16.5" transform="translate(537 117.5)" fill="#D289FF"/>
<rect width="16.5" height="16.5" transform="translate(603 117.5)" fill="#D289FF"/>
<rect width="16.5" height="16.5" transform="translate(586.5 117.5)" fill="#D289FF"/>
<rect width="16.5" height="16.5" transform="translate(553.5 101)" fill="#EFD4FF"/>
<rect width="16.5" height="16.5" transform="translate(619.5 101)" fill="#EFD4FF"/>
<rect width="16.5" height="16.5" transform="translate(553.5 117.5)" fill="#D289FF"/>
<rect width="16.5" height="16.5" transform="translate(619.5 117.5)" fill="#D289FF"/>
<rect width="16.5" height="16.5" transform="translate(570 117.5)" fill="#D289FF"/>
<rect width="16.5" height="16.5" transform="translate(636 117.5)" fill="#D289FF"/>
</g>
<rect width="16.5" height="16.5" transform="translate(851.5 2)" fill="#D4EDFF"/>
<rect width="16.5" height="16.5" transform="translate(868 2)" fill="#D4EDFF"/>
<rect width="16.5" height="16.5" transform="translate(884.5 2)" fill="#D4EDFF"/>
<rect width="16.5" height="16.5" transform="translate(901 2)" fill="#D4EDFF"/>
<rect width="16.5" height="16.5" transform="translate(917.5 2)" fill="#D4EDFF"/>
<rect width="16.5" height="16.5" transform="translate(835 18.5)" fill="#D4EDFF"/>
<rect width="16.5" height="16.5" transform="translate(851.5 18.5)" fill="#D4EDFF"/>
<rect width="16.5" height="16.5" transform="translate(868 18.5)" fill="#D4EDFF"/>
<rect width="16.5" height="16.5" transform="translate(884.5 18.5)" fill="#D4EDFF"/>
<rect width="16.5" height="16.5" transform="translate(901 18.5)" fill="#D4EDFF"/>
<rect width="16.5" height="16.5" transform="translate(917.5 18.5)" fill="#D4EDFF"/>
<rect width="16.5" height="16.5" transform="translate(934 18.5)" fill="#D4EDFF"/>
<rect width="16.5" height="16.5" transform="translate(835 35)" fill="#D4EDFF"/>
<rect width="16.5" height="16.5" transform="translate(851.5 35)" fill="#D4EDFF"/>
<rect width="16.5" height="16.5" transform="translate(868 35)" fill="#D4EDFF"/>
<rect width="16.5" height="16.5" transform="translate(884.5 35)" fill="#89B8FF"/>
<rect width="16.5" height="16.5" transform="translate(901 35)" fill="#D4EDFF"/>
<rect width="16.5" height="16.5" transform="translate(917.5 35)" fill="#D4EDFF"/>
<rect width="16.5" height="16.5" transform="translate(934 35)" fill="#D4EDFF"/>
<rect width="16.5" height="16.5" transform="translate(835 51.5)" fill="#D4EDFF"/>
<rect width="16.5" height="16.5" transform="translate(851.5 51.5)" fill="#D4EDFF"/>
<rect width="16.5" height="16.5" transform="translate(868 51.5)" fill="#D4EDFF"/>
<rect width="16.5" height="16.5" transform="translate(901 51.5)" fill="#D4EDFF"/>
<rect width="16.5" height="16.5" transform="translate(917.5 51.5)" fill="#D4EDFF"/>
<rect width="16.5" height="16.5" transform="translate(934 51.5)" fill="#D4EDFF"/>
<rect width="16.5" height="16.5" transform="translate(835 68)" fill="#D4EDFF"/>
<rect width="16.5" height="16.5" transform="translate(851.5 68)" fill="#D4EDFF"/>
<rect width="16.5" height="16.5" transform="translate(868 68)" fill="#D4EDFF"/>
<rect width="16.5" height="16.5" transform="translate(884.5 68)" fill="#D4EDFF"/>
<rect width="16.5" height="16.5" transform="translate(901 68)" fill="#D4EDFF"/>
<rect width="16.5" height="16.5" transform="translate(917.5 68)" fill="#D4EDFF"/>
<rect width="16.5" height="16.5" transform="translate(934 68)" fill="#D4EDFF"/>
<rect width="16.5" height="16.5" transform="translate(835 84.5)" fill="#D4EDFF"/>
<rect width="16.5" height="16.5" transform="translate(851.5 84.5)" fill="#D4EDFF"/>
<rect width="16.5" height="16.5" transform="translate(868 84.5)" fill="#D4EDFF"/>
<rect width="16.5" height="16.5" transform="translate(884.5 84.5)" fill="#89B8FF"/>
<rect width="16.5" height="16.5" transform="translate(901 84.5)" fill="#D4EDFF"/>
<rect width="16.5" height="16.5" transform="translate(917.5 84.5)" fill="#D4EDFF"/>
<rect width="16.5" height="16.5" transform="translate(934 84.5)" fill="#D4EDFF"/>
<rect width="16.5" height="16.5" transform="translate(835 101)" fill="#D4EDFF"/>
<rect width="16.5" height="16.5" transform="translate(851.5 101)" fill="#D4EDFF"/>
<rect width="16.5" height="16.5" transform="translate(868 101)" fill="#D4EDFF"/>
<rect width="16.5" height="16.5" transform="translate(901 101)" fill="#D4EDFF"/>
<rect width="16.5" height="16.5" transform="translate(917.5 101)" fill="#D4EDFF"/>
<rect width="16.5" height="16.5" transform="translate(934 101)" fill="#D4EDFF"/>
<rect width="16.5" height="16.5" transform="translate(835 117.5)" fill="#89B8FF"/>
<rect width="16.5" height="16.5" transform="translate(851.5 117.5)" fill="#89B8FF"/>
<rect width="16.5" height="16.5" transform="translate(868 117.5)" fill="#89B8FF"/>
<rect width="16.5" height="16.5" transform="translate(901 117.5)" fill="#89B8FF"/>
<rect width="16.5" height="16.5" transform="translate(917.5 117.5)" fill="#89B8FF"/>
<rect width="16.5" height="16.5" transform="translate(934 117.5)" fill="#89B8FF"/>
<g clip-path="url(#clip2_102_2251)">
<rect width="16.5" height="16.5" transform="translate(1023.5 33)" fill="#D4FFDE"/>
<rect width="16.5" height="16.5" transform="translate(1023.5)" fill="#D4FFDE"/>
<rect width="16.5" height="16.5" transform="translate(1023.5 82.5)" fill="#89FFAA"/>
<rect width="16.5" height="16.5" transform="translate(1023.5 49.5)" fill="#D4FFDE"/>
<rect width="16.5" height="16.5" transform="translate(1023.5 16.5)" fill="#D4FFDE"/>
<rect width="16.5" height="16.5" transform="translate(1023.5 66)" fill="#D4FFDE"/>
<rect width="16.5" height="16.5" transform="translate(974 33)" fill="#D4FFDE"/>
<rect width="16.5" height="16.5" transform="translate(974)" fill="#D4FFDE"/>
<rect width="16.5" height="16.5" transform="translate(974 82.5)" fill="#D4FFDE"/>
<rect width="16.5" height="16.5" transform="translate(990.5 33)" fill="#D4FFDE"/>
<rect width="16.5" height="16.5" transform="translate(990.5)" fill="#D4FFDE"/>
<rect width="16.5" height="16.5" transform="translate(990.5 82.5)" fill="#D4FFDE"/>
<rect width="16.5" height="16.5" transform="translate(1007 82.5)" fill="#D4FFDE"/>
<rect width="16.5" height="16.5" transform="translate(1040 82.5)" fill="#D4FFDE"/>
<rect width="16.5" height="16.5" transform="translate(1056.5 33)" fill="#D4FFDE"/>
<rect width="16.5" height="16.5" transform="translate(1056.5)" fill="#D4FFDE"/>
<rect width="16.5" height="16.5" transform="translate(1056.5 82.5)" fill="#D4FFDE"/>
<rect width="16.5" height="16.5" transform="translate(1073 33)" fill="#D4FFDE"/>
<rect width="16.5" height="16.5" transform="translate(1073)" fill="#D4FFDE"/>
<rect width="16.5" height="16.5" transform="translate(1073 82.5)" fill="#D4FFDE"/>
<rect width="16.5" height="16.5" transform="translate(974 49.5)" fill="#D4FFDE"/>
<rect width="16.5" height="16.5" transform="translate(974 16.5)" fill="#D4FFDE"/>
<rect width="16.5" height="16.5" transform="translate(974 99)" fill="#89FFAA"/>
<rect width="16.5" height="16.5" transform="translate(990.5 49.5)" fill="#D4FFDE"/>
<rect width="16.5" height="16.5" transform="translate(990.5 16.5)" fill="#D4FFDE"/>
<rect width="16.5" height="16.5" transform="translate(990.5 99)" fill="#D4FFDE"/>
<rect width="16.5" height="16.5" transform="translate(1007 49.5)" fill="#D4FFDE"/>
<rect width="16.5" height="16.5" transform="translate(1007 33)" fill="#D4FFDE"/>
<rect width="16.5" height="16.5" transform="translate(1007 99)" fill="#D4FFDE"/>
<rect width="16.5" height="16.5" transform="translate(1040 49.5)" fill="#D4FFDE"/>
<rect width="16.5" height="16.5" transform="translate(1040 33)" fill="#D4FFDE"/>
<rect width="16.5" height="16.5" transform="translate(1040 99)" fill="#89FFAA"/>
<rect width="16.5" height="16.5" transform="translate(1056.5 49.5)" fill="#D4FFDE"/>
<rect width="16.5" height="16.5" transform="translate(1056.5 16.5)" fill="#D4FFDE"/>
<rect width="16.5" height="16.5" transform="translate(1056.5 99)" fill="#D4FFDE"/>
<rect width="16.5" height="16.5" transform="translate(1073 49.5)" fill="#D4FFDE"/>
<rect width="16.5" height="16.5" transform="translate(1073 16.5)" fill="#D4FFDE"/>
<rect width="16.5" height="16.5" transform="translate(1073 99)" fill="#D4FFDE"/>
<rect width="16.5" height="16.5" transform="translate(974 66)" fill="#D4FFDE"/>
<rect width="16.5" height="16.5" transform="translate(990.5 66)" fill="#D4FFDE"/>
<rect width="16.5" height="16.5" transform="translate(990.5 115.5)" fill="#89FFAA"/>
<rect width="16.5" height="16.5" transform="translate(1007 66)" fill="#D4FFDE"/>
<rect width="16.5" height="16.5" transform="translate(1007 115.5)" fill="#D4FFDE"/>
<rect width="16.5" height="16.5" transform="translate(1040 66)" fill="#D4FFDE"/>
<rect width="16.5" height="16.5" transform="translate(1056.5 66)" fill="#D4FFDE"/>
<rect width="16.5" height="16.5" transform="translate(1056.5 115.5)" fill="#89FFAA"/>
<rect width="16.5" height="16.5" transform="translate(1073 66)" fill="#D4FFDE"/>
<rect width="16.5" height="16.5" transform="translate(1073 115.5)" fill="#D4FFDE"/>
</g>
<rect width="16.75" height="16.75" transform="translate(1126.75 1)" fill="#EFD4FF"/>
<rect width="16.75" height="16.75" transform="translate(1110 1)" fill="#EFD4FF"/>
<rect width="16.75" height="16.75" transform="translate(1143.5 1)" fill="#EFD4FF"/>
<rect width="16.75" height="16.75" transform="translate(1160.25 1)" fill="#EFD4FF"/>
<rect width="16.75" height="16.75" transform="translate(1177 1)" fill="#EFD4FF"/>
<rect width="16.75" height="16.75" transform="translate(1110 17.75)" fill="#EFD4FF"/>
<rect width="16.75" height="16.75" transform="translate(1126.75 17.75)" fill="#EFD4FF"/>
<rect width="16.75" height="16.75" transform="translate(1143.5 17.75)" fill="#EFD4FF"/>
<rect width="16.75" height="16.75" transform="translate(1160.25 17.75)" fill="#EFD4FF"/>
<rect width="16.75" height="16.75" transform="translate(1177 17.75)" fill="#EFD4FF"/>
<rect width="16.75" height="16.75" transform="translate(1193.75 17.75)" fill="#EFD4FF"/>
<rect width="16.75" height="16.75" transform="translate(1110 34.5)" fill="#EFD4FF"/>
<rect width="16.75" height="16.75" transform="translate(1126.75 34.5)" fill="#EFD4FF"/>
<rect width="16.75" height="16.75" transform="translate(1143.5 34.5)" fill="#EFD4FF"/>
<rect width="16.75" height="16.75" transform="translate(1160.25 34.5)" fill="#EFD4FF"/>
<rect width="16.75" height="16.75" transform="translate(1160.25 51.25)" fill="#EFD4FF"/>
<rect width="16.75" height="16.75" transform="translate(1177 34.5)" fill="#EFD4FF"/>
<rect width="16.75" height="16.75" transform="translate(1193.75 34.5)" fill="#EFD4FF"/>
<rect width="16.75" height="16.75" transform="translate(1210.5 34.5)" fill="#EFD4FF"/>
<rect width="16.75" height="16.75" transform="translate(1110 51.25)" fill="#EFD4FF"/>
<rect width="16.75" height="16.75" transform="translate(1126.75 51.25)" fill="#EFD4FF"/>
<rect width="16.75" height="16.75" transform="translate(1143.5 51.25)" fill="#EFD4FF"/>
<rect width="16.75" height="16.75" transform="translate(1177 51.25)" fill="#EFD4FF"/>
<rect width="16.75" height="16.75" transform="translate(1193.75 51.25)" fill="#EFD4FF"/>
<rect width="16.75" height="16.75" transform="translate(1210.5 51.25)" fill="#EFD4FF"/>
<rect width="16.75" height="16.75" transform="translate(1110 68)" fill="#EFD4FF"/>
<rect width="16.75" height="16.75" transform="translate(1126.75 68)" fill="#EFD4FF"/>
<rect width="16.75" height="16.75" transform="translate(1143.5 68)" fill="#EFD4FF"/>
<rect width="16.75" height="16.75" transform="translate(1177 68)" fill="#EFD4FF"/>
<rect width="16.75" height="16.75" transform="translate(1193.75 68)" fill="#EFD4FF"/>
<rect width="16.75" height="16.75" transform="translate(1210.5 68)" fill="#EFD4FF"/>
<rect width="16.75" height="16.75" transform="translate(1110 84.75)" fill="#EFD4FF"/>
<rect width="16.75" height="16.75" transform="translate(1126.75 84.75)" fill="#EFD4FF"/>
<rect width="16.75" height="16.75" transform="translate(1143.5 84.75)" fill="#EFD4FF"/>
<rect width="16.75" height="16.75" transform="translate(1160.25 68)" fill="#D289FF"/>
<rect width="16.75" height="16.75" transform="translate(1177 84.75)" fill="#EFD4FF"/>
<rect width="16.75" height="16.75" transform="translate(1193.75 84.75)" fill="#EFD4FF"/>
<rect width="16.75" height="16.75" transform="translate(1210.5 84.75)" fill="#EFD4FF"/>
<rect width="16.75" height="16.75" transform="translate(1110 101.5)" fill="#EFD4FF"/>
<rect width="16.75" height="16.75" transform="translate(1126.75 101.5)" fill="#EFD4FF"/>
<rect width="16.75" height="16.75" transform="translate(1143.5 101.5)" fill="#EFD4FF"/>
<rect width="16.75" height="16.75" transform="translate(1177 101.5)" fill="#EFD4FF"/>
<rect width="16.75" height="16.75" transform="translate(1193.75 101.5)" fill="#EFD4FF"/>
<rect width="16.75" height="16.75" transform="translate(1210.5 101.5)" fill="#EFD4FF"/>
<rect width="16.75" height="16.75" transform="translate(1110 118.25)" fill="#D289FF"/>
<rect width="16.75" height="16.75" transform="translate(1126.75 118.25)" fill="#D289FF"/>
<rect width="16.75" height="16.75" transform="translate(1143.5 118.25)" fill="#D289FF"/>
<rect width="16.75" height="16.75" transform="translate(1177 118.25)" fill="#D289FF"/>
<rect width="16.75" height="16.75" transform="translate(1193.75 118.25)" fill="#D289FF"/>
<rect width="16.75" height="16.75" transform="translate(1210.5 118.25)" fill="#D289FF"/>
<rect width="16.625" height="16.625" transform="translate(1260.62 2)" fill="#FFD5E1"/>
<rect width="16.625" height="16.625" transform="translate(1277.25 2)" fill="#FFD5E1"/>
<rect width="16.625" height="16.625" transform="translate(1293.88 2)" fill="#FFD5E1"/>
<rect width="16.625" height="16.625" transform="translate(1310.5 2)" fill="#FFD5E1"/>
<rect width="16.625" height="16.625" transform="translate(1244 18.625)" fill="#FFD5E1"/>
<rect width="16.625" height="16.625" transform="translate(1260.62 18.625)" fill="#FFD5E1"/>
<rect width="16.625" height="16.625" transform="translate(1277.25 18.625)" fill="#FFD5E1"/>
<rect width="16.625" height="16.625" transform="translate(1293.88 18.625)" fill="#FFD5E1"/>
<rect width="16.625" height="16.625" transform="translate(1293.88 35.25)" fill="#FF89AC"/>
<rect width="16.625" height="16.625" transform="translate(1327.12 18.625)" fill="#FFD5E1"/>
<rect width="16.625" height="16.625" transform="translate(1310.5 18.625)" fill="#FFD5E1"/>
<rect width="16.625" height="16.625" transform="translate(1343.75 18.625)" fill="#FFD5E1"/>
<rect width="16.625" height="16.625" transform="translate(1327.12 2)" fill="#FFD5E1"/>
<rect width="16.625" height="16.625" transform="translate(1244 35.25)" fill="#FFD5E1"/>
<rect width="16.625" height="16.625" transform="translate(1260.62 35.25)" fill="#FFD5E1"/>
<rect width="16.625" height="16.625" transform="translate(1277.25 35.25)" fill="#FFD5E1"/>
<rect width="16.625" height="16.625" transform="translate(1310.5 35.25)" fill="#FF89AC"/>
<rect width="16.625" height="16.625" transform="translate(1327.12 35.25)" fill="#FF89AC"/>
<rect width="16.625" height="16.625" transform="translate(1343.75 35.25)" fill="#FF89AC"/>
<rect width="16.625" height="16.625" transform="translate(1244 51.875)" fill="#FFD5E1"/>
<rect width="16.625" height="16.625" transform="translate(1260.62 51.875)" fill="#FFD5E1"/>
<rect width="16.625" height="16.625" transform="translate(1277.25 51.875)" fill="#FFD5E1"/>
<rect width="16.625" height="16.625" transform="translate(1310.5 51.875)" fill="#FFD5E1"/>
<rect width="16.625" height="16.625" transform="translate(1293.88 51.875)" fill="#FFD5E1"/>
<rect width="16.625" height="16.625" transform="translate(1327.12 51.875)" fill="#FFD5E1"/>
<rect width="16.625" height="16.625" transform="translate(1343.75 51.875)" fill="#FFD5E1"/>
<rect width="16.625" height="16.625" transform="translate(1244 68.5)" fill="#FF89AC"/>
<rect width="16.625" height="16.625" transform="translate(1260.62 68.5)" fill="#FF89AC"/>
<rect width="16.625" height="16.625" transform="translate(1277.25 68.5)" fill="#FF89AC"/>
<rect width="16.625" height="16.625" transform="translate(1310.5 68.5)" fill="#FFD5E1"/>
<rect width="16.625" height="16.625" transform="translate(1327.12 68.5)" fill="#FFD5E1"/>
<rect width="16.625" height="16.625" transform="translate(1343.75 68.5)" fill="#FFD5E1"/>
<rect width="16.625" height="16.625" transform="translate(1244 85.125)" fill="#FFD5E1"/>
<rect width="16.625" height="16.625" transform="translate(1260.62 85.125)" fill="#FFD5E1"/>
<rect width="16.625" height="16.625" transform="translate(1277.25 85.125)" fill="#FFD5E1"/>
<rect width="16.625" height="16.625" transform="translate(1293.88 68.5)" fill="#FF89AC"/>
<rect width="16.625" height="16.625" transform="translate(1310.5 85.125)" fill="#FFD5E1"/>
<rect width="16.625" height="16.625" transform="translate(1327.12 85.125)" fill="#FFD5E1"/>
<rect width="16.625" height="16.625" transform="translate(1244 101.75)" fill="#FF89AC"/>
<rect width="16.625" height="16.625" transform="translate(1260.62 101.75)" fill="#FFD5E1"/>
<rect width="16.625" height="16.625" transform="translate(1277.25 101.75)" fill="#FFD5E1"/>
<rect width="16.625" height="16.625" transform="translate(1293.88 85.125)" fill="#FFD5E1"/>
<rect width="16.625" height="16.625" transform="translate(1293.88 101.75)" fill="#FFD5E1"/>
<rect width="16.625" height="16.625" transform="translate(1310.5 101.75)" fill="#FFD5E1"/>
<rect width="16.625" height="16.625" transform="translate(1327.12 101.75)" fill="#FFD5E1"/>
<rect width="16.625" height="16.625" transform="translate(1343.75 85.125)" fill="#FFD5E1"/>
<rect width="16.625" height="16.625" transform="translate(1343.75 101.75)" fill="#FF89AC"/>
<rect width="16.625" height="16.625" transform="translate(1260.62 118.375)" fill="#FF89AC"/>
<rect width="16.625" height="16.625" transform="translate(1277.25 118.375)" fill="#FF89AC"/>
<rect width="16.625" height="16.625" transform="translate(1293.88 118.375)" fill="#FF89AC"/>
<rect width="16.625" height="16.625" transform="translate(1310.5 118.375)" fill="#FF89AC"/>
<rect width="16.625" height="16.625" transform="translate(1327.12 118.375)" fill="#FF89AC"/>
<g filter="url(#filter0_d_102_2251)">
<rect width="16.625" height="16.625" transform="translate(711.625 1)" fill="#FFD5E1"/>
<rect width="16.625" height="16.625" transform="translate(695 1)" fill="#FFD5E1"/>
<rect width="16.625" height="16.625" transform="translate(728.25 1)" fill="#FFD5E1"/>
<rect width="16.625" height="16.625" transform="translate(744.875 1)" fill="#FFD5E1"/>
<rect width="16.625" height="16.625" transform="translate(761.5 1)" fill="#FFD5E1"/>
<rect width="16.625" height="16.625" transform="translate(695 17.625)" fill="#FFD5E1"/>
<rect width="16.625" height="16.625" transform="translate(711.625 17.625)" fill="#FFD5E1"/>
<rect width="16.625" height="16.625" transform="translate(728.25 17.625)" fill="#FFD5E1"/>
<rect width="16.625" height="16.625" transform="translate(744.875 17.625)" fill="#FFD5E1"/>
<rect width="16.625" height="16.625" transform="translate(744.875 34.25)" fill="#FF89AC"/>
<rect width="16.625" height="16.625" transform="translate(778.125 17.625)" fill="#FFD5E1"/>
<rect width="16.625" height="16.625" transform="translate(761.5 17.625)" fill="#FFD5E1"/>
<rect width="16.625" height="16.625" transform="translate(794.75 17.625)" fill="#FFD5E1"/>
<rect width="16.625" height="16.625" transform="translate(778.125 1)" fill="#FFD5E1"/>
<rect width="16.625" height="16.625" transform="translate(695 34.25)" fill="#FFD5E1"/>
<rect width="16.625" height="16.625" transform="translate(711.625 34.25)" fill="#FFD5E1"/>
<rect width="16.625" height="16.625" transform="translate(728.25 34.25)" fill="#FFD5E1"/>
<rect width="16.625" height="16.625" transform="translate(761.5 34.25)" fill="#FFD5E1"/>
<rect width="16.625" height="16.625" transform="translate(778.125 34.25)" fill="#FFD5E1"/>
<rect width="16.625" height="16.625" transform="translate(794.75 34.25)" fill="#FFD5E1"/>
<rect width="16.625" height="16.625" transform="translate(695 50.875)" fill="#FFD5E1"/>
<rect width="16.625" height="16.625" transform="translate(711.625 50.875)" fill="#FFD5E1"/>
<rect width="16.625" height="16.625" transform="translate(728.25 50.875)" fill="#FFD5E1"/>
<rect width="16.625" height="16.625" transform="translate(761.5 50.875)" fill="#FFD5E1"/>
<rect width="16.625" height="16.625" transform="translate(778.125 50.875)" fill="#FFD5E1"/>
<rect width="16.625" height="16.625" transform="translate(794.75 50.875)" fill="#FFD5E1"/>
<rect width="16.625" height="16.625" transform="translate(695 67.5)" fill="#FFD5E1"/>
<rect width="16.625" height="16.625" transform="translate(711.625 67.5)" fill="#FFD5E1"/>
<rect width="16.625" height="16.625" transform="translate(728.25 67.5)" fill="#FFD5E1"/>
<rect width="16.625" height="16.625" transform="translate(761.5 67.5)" fill="#FFD5E1"/>
<rect width="16.625" height="16.625" transform="translate(778.125 67.5)" fill="#FFD5E1"/>
<rect width="16.625" height="16.625" transform="translate(794.75 67.5)" fill="#FFD5E1"/>
<rect width="16.625" height="16.625" transform="translate(695 84.125)" fill="#FFD5E1"/>
<rect width="16.625" height="16.625" transform="translate(695 100.75)" fill="#FFD5E1"/>
<rect width="16.625" height="16.625" transform="translate(711.625 84.125)" fill="#FFD5E1"/>
<rect width="16.625" height="16.625" transform="translate(728.25 84.125)" fill="#FFD5E1"/>
<rect width="16.625" height="16.625" transform="translate(744.875 84.125)" fill="#FFD5E1"/>
<rect width="16.625" height="16.625" transform="translate(744.875 67.5)" fill="#FFD5E1"/>
<rect width="16.625" height="16.625" transform="translate(761.5 84.125)" fill="#FFD5E1"/>
<rect width="16.625" height="16.625" transform="translate(778.125 84.125)" fill="#FFD5E1"/>
<rect width="16.625" height="16.625" transform="translate(794.75 84.125)" fill="#FF89AC"/>
<rect width="16.625" height="16.625" transform="translate(695 117.375)" fill="#FF89AC"/>
<rect width="16.625" height="16.625" transform="translate(711.625 100.75)" fill="#FFD5E1"/>
<rect width="16.625" height="16.625" transform="translate(728.25 100.75)" fill="#FFD5E1"/>
<rect width="16.625" height="16.625" transform="translate(744.875 100.75)" fill="#FF89AC"/>
<rect width="16.625" height="16.625" transform="translate(761.5 100.75)" fill="#FF89AC"/>
<rect width="16.625" height="16.625" transform="translate(778.125 100.75)" fill="#FF89AC"/>
<rect width="16.625" height="16.625" transform="translate(711.625 117.375)" fill="#FF89AC"/>
<rect width="16.625" height="16.625" transform="translate(728.25 117.375)" fill="#FF89AC"/>
</g>
<defs>
<filter id="filter0_d_102_2251" x="688.35" y="1" width="146.3" height="146.3" filterUnits="userSpaceOnUse" color-interpolation-filters="sRGB">
<feFlood flood-opacity="0" result="BackgroundImageFix"/>
<feColorMatrix in="SourceAlpha" type="matrix" values="0 0 0 0 0 0 0 0 0 0 0 0 0 0 0 0 0 0 127 0" result="hardAlpha"/>
<feOffset dy="6.65"/>
<feGaussianBlur stdDeviation="3.325"/>
<feComposite in2="hardAlpha" operator="out"/>
<feColorMatrix type="matrix" values="0 0 0 0 0 0 0 0 0 0 0 0 0 0 0 0 0 0 0.25 0"/>
<feBlend mode="normal" in2="BackgroundImageFix" result="effect1_dropShadow_102_2251"/>
<feBlend mode="normal" in="SourceGraphic" in2="effect1_dropShadow_102_2251" result="shape"/>
</filter>
<clipPath id="clip0_102_2251">
<rect width="133" height="133" fill="white" transform="translate(233 7)"/>
</clipPath>
<clipPath id="clip1_102_2251">
<rect width="132" height="132" fill="white" transform="translate(537 2)"/>
</clipPath>
<clipPath id="clip2_102_2251">
<rect width="132" height="132" fill="white" transform="translate(974)"/>
</clipPath>
</defs>
</svg>
